HIERARCHY
ROOT Hips
{
	OFFSET 115.004059 184.361008 -70.984138
	CHANNELS 6 Xposition Yposition Zposition Xrotation Yrotation Zrotation
	JOINT LeftUpLeg
	{
		OFFSET 6.050446 1.960724 8.618641
		CHANNELS 6 Xposition Yposition Zposition Xrotation Yrotation Zrotation
		JOINT LeftLeg
		{
			OFFSET -17.874222 -37.818466 11.938377
			CHANNELS 6 Xposition Yposition Zposition Xrotation Yrotation Zrotation
			JOINT LeftFoot
			{
				OFFSET 1.810493 -41.264328 -9.454155
				CHANNELS 6 Xposition Yposition Zposition Xrotation Yrotation Zrotation
				JOINT LeftToe
				{
					OFFSET -13.438164 -7.259949 8.123966
					CHANNELS 6 Xposition Yposition Zposition Xrotation Yrotation Zrotation
					JOINT LeftToe_end
					{
						OFFSET -0.004387 0.099831 0.004059
						CHANNELS 6 Xposition Yposition Zposition Xrotation Yrotation Zrotation
						End Site
						{
							OFFSET 0.085190 0.005859 -0.052059
						}
					}
				}
			}
		}
	}
	JOINT RightUpLeg
	{
		OFFSET -8.706955 -1.528397 -6.048645
		CHANNELS 6 Xposition Yposition Zposition Xrotation Yrotation Zrotation
		JOINT RightLeg
		{
			OFFSET -5.564728 -41.360611 12.271454
			CHANNELS 6 Xposition Yposition Zposition Xrotation Yrotation Zrotation
			JOINT RightFoot
			{
				OFFSET 33.602570 -16.282745 -20.028717
				CHANNELS 6 Xposition Yposition Zposition Xrotation Yrotation Zrotation
				JOINT RightToe
				{
					OFFSET 2.199020 -16.870338 3.137909
					CHANNELS 6 Xposition Yposition Zposition Xrotation Yrotation Zrotation
					JOINT RightToe_end
					{
						OFFSET -0.082382 0.035049 0.044525
						CHANNELS 6 Xposition Yposition Zposition Xrotation Yrotation Zrotation
						End Site
						{
							OFFSET 0.018723 0.090996 -0.036980
						}
					}
				}
			}
		}
	}
	JOINT Spine
	{
		OFFSET 1.346504 6.633438 -2.932785
		CHANNELS 6 Xposition Yposition Zposition Xrotation Yrotation Zrotation
		JOINT Spine1
		{
			OFFSET -2.238060 12.386887 0.127335
			CHANNELS 6 Xposition Yposition Zposition Xrotation Yrotation Zrotation
			JOINT Spine2
			{
				OFFSET -2.922363 11.643372 2.871620
				CHANNELS 6 Xposition Yposition Zposition Xrotation Yrotation Zrotation
				JOINT Neck
				{
					OFFSET -6.582275 22.188110 11.476051
					CHANNELS 6 Xposition Yposition Zposition Xrotation Yrotation Zrotation
					JOINT Head
					{
						OFFSET -1.413452 10.363022 5.391010
						CHANNELS 6 Xposition Yposition Zposition Xrotation Yrotation Zrotation
						JOINT Head_end
						{
							OFFSET -0.036713 -0.007355 0.092716
							CHANNELS 6 Xposition Yposition Zposition Xrotation Yrotation Zrotation
							End Site
							{
								OFFSET 0.014854 -0.098862 -0.001953
							}
						}
					}
				}
				JOINT LeftShoulder
				{
					OFFSET 0.896217 17.986115 10.187702
					CHANNELS 6 Xposition Yposition Zposition Xrotation Yrotation Zrotation
					JOINT LeftArm
					{
						OFFSET 10.952934 -1.764816 2.061596
						CHANNELS 6 Xposition Yposition Zposition Xrotation Yrotation Zrotation
						JOINT LeftForeArm
						{
							OFFSET 21.443024 -23.816360 -7.872864
							CHANNELS 6 Xposition Yposition Zposition Xrotation Yrotation Zrotation
							JOINT LeftHand
							{
								OFFSET -15.482925 -10.574234 16.837635
								CHANNELS 6 Xposition Yposition Zposition Xrotation Yrotation Zrotation
								JOINT LeftHand_end
								{
									OFFSET 0.077286 -0.008728 0.062843
									CHANNELS 6 Xposition Yposition Zposition Xrotation Yrotation Zrotation
									End Site
									{
										OFFSET 0.063446 0.011230 -0.076462
									}
								}
							}
						}
					}
				}
				JOINT RightShoulder
				{
					OFFSET -9.925011 17.444290 5.029076
					CHANNELS 6 Xposition Yposition Zposition Xrotation Yrotation Zrotation
					JOINT RightArm
					{
						OFFSET -9.746284 -2.252014 -5.222069
						CHANNELS 6 Xposition Yposition Zposition Xrotation Yrotation Zrotation
						JOINT RightForeArm
						{
							OFFSET -3.113632 -30.587357 -11.988533
							CHANNELS 6 Xposition Yposition Zposition Xrotation Yrotation Zrotation
							JOINT RightHand
							{
								OFFSET 0.929787 -5.747803 24.517925
								CHANNELS 6 Xposition Yposition Zposition Xrotation Yrotation Zrotation
								JOINT RightHand_end
								{
									OFFSET -0.085556 -0.051743 -0.000324
									CHANNELS 6 Xposition Yposition Zposition Xrotation Yrotation Zrotation
									End Site
									{
										OFFSET 0.010361 -0.016525 -0.098072
									}
								}
							}
						}
					}
				}
			}
		}
	}
}
MOTION
Frames: 6
Frame Time: 0.041667
189.279327 190.614227 -253.494171 8.882346 56.903194 -14.238427 6.050426 1.960753 8.618613 -4.883367 5.751883 26.083557 -17.874224 -37.818542 11.938383 -10.869964 5.970653 -14.118345 1.810504 -41.264339 -9.454123 12.246317 3.114188 -4.321749 -13.438128 -7.259962 8.123944 0.000002 -0.000013 0.000003 -0.004377 0.099830 0.004091 -0.000000 -0.000003 -0.000000 -8.706970 -1.528398 -6.048650 4.891118 24.738503 -1.995281 -5.564701 -41.360615 12.271484 -34.305195 0.143742 -42.256748 33.602570 -16.282747 -20.028677 -6.820848 2.968796 -14.479105 2.198980 -16.870329 3.137870 -0.000006 0.000004 0.000010 -0.082383 0.035027 0.044492 -0.000001 0.000003 -0.000001 1.346455 6.633399 -2.932744 -3.054322 -4.252894 0.887377 -2.238042 12.386908 0.127306 -5.374095 -9.105662 0.954483 -2.922354 11.643351 2.871578 -4.570366 -9.626777 -0.083218 -6.582288 22.188108 11.476074 -3.943196 -8.617277 -4.798618 -1.413441 10.363014 5.391026 6.818932 -9.556739 4.547948 -0.036718 -0.007369 0.092729 0.000001 -0.000005 0.000001 0.896217 17.986065 10.187729 -0.827416 -4.447149 2.436446 10.952917 -1.764818 2.061611 17.556520 -23.170963 -8.282649 21.443035 -23.816326 -7.872880 21.799227 38.796195 56.782573 -15.482892 -10.574291 16.837574 33.345141 -2.072398 22.449247 0.077334 -0.008727 0.062850 -0.000000 0.000005 0.000002 -9.925009 17.444283 5.029074 -1.085812 -12.417659 5.561071 -9.746314 -2.252011 -5.222095 9.819588 4.072596 -5.698923 -3.113634 -30.587370 -11.988538 53.636909 -21.824925 -5.860059 0.929772 -5.747772 24.517929 20.259249 8.423507 35.236434 -0.085512 -0.051740 -0.000351 0.000001 0.000000 0.000000 
190.368912 190.640823 -253.233276 8.592539 55.047975 -13.351457 6.050426 1.960736 8.618623 -4.168469 5.437945 26.066466 -17.874205 -37.818489 11.938397 -10.206092 7.245867 -14.305412 1.810520 -41.264339 -9.454181 11.515408 4.038419 -4.678013 -13.438197 -7.259947 8.123938 0.000003 -0.000011 0.000003 -0.004377 0.099846 0.004094 -0.000000 -0.000003 0.000000 -8.706952 -1.528371 -6.048639 4.137844 22.634258 -3.376185 -5.564715 -41.360630 12.271484 -32.236048 0.658826 -39.200091 33.602539 -16.282776 -20.028683 -7.121890 2.799141 -12.754542 2.199014 -16.870358 3.137921 -0.000006 0.000004 0.000016 -0.082388 0.035009 0.044515 -0.000003 0.000003 0.000000 1.346490 6.633428 -2.932738 -2.872838 -4.245681 0.623412 -2.238076 12.386950 0.127285 -5.103241 -8.976836 0.405115 -2.922333 11.643335 2.871593 -4.404154 -9.367944 -0.642883 -6.582294 22.188112 11.476075 -3.905699 -8.095891 -5.618867 -1.413472 10.363002 5.391060 6.629501 -10.089611 5.345776 -0.036696 -0.007366 0.092752 0.000001 0.000001 -0.000000 0.896208 17.986103 10.187702 -0.827301 -3.808432 2.383978 10.952927 -1.764759 2.061569 15.706339 -20.110519 -9.210371 21.443012 -23.816326 -7.872815 22.395352 40.063503 58.285652 -15.482934 -10.574196 16.837593 32.781927 0.924394 28.257705 0.077315 -0.008688 0.062862 -0.000000 0.000002 -0.000000 -9.925052 17.444307 5.029051 -1.015021 -12.640976 5.427977 -9.746319 -2.252043 -5.222085 10.251590 1.302000 -3.045085 -3.113613 -30.587364 -11.988525 55.291023 -22.068059 -5.827730 0.929808 -5.747812 24.517929 20.786385 6.423125 36.464553 -0.085526 -0.051719 -0.000304 0.000005 0.000001 0.000002 
191.315857 190.667404 -252.972321 8.387958 52.958258 -12.795652 6.050451 1.960729 8.618648 -3.048595 4.035013 26.720250 -17.874222 -37.818504 11.938376 -10.095959 9.539060 -14.817916 1.810508 -41.264339 -9.454114 11.299803 5.563408 -4.986344 -13.438181 -7.259969 8.123947 0.000002 -0.000009 0.000006 -0.004323 0.099846 0.004034 -0.000000 -0.000003 -0.000000 -8.706960 -1.528369 -6.048617 3.554107 21.080757 -4.486281 -5.564705 -41.360630 12.271494 -30.947341 0.314878 -37.368173 33.602581 -16.282738 -20.028690 -7.443214 0.276793 -10.833903 2.199007 -16.870342 3.137915 -0.000004 0.000004 0.000012 -0.082399 0.035056 0.044492 -0.000002 0.000001 0.000000 1.346470 6.633389 -2.932750 -2.756192 -4.076947 0.436503 -2.238047 12.386946 0.127327 -4.946752 -8.566024 0.071760 -2.922358 11.643382 2.871585 -4.326135 -8.885862 -0.916796 -6.582263 22.188124 11.476068 -3.726037 -7.232092 -7.301832 -1.413451 10.363044 5.391014 6.924861 -10.854765 6.235973 -0.036693 -0.007385 0.092720 0.000001 0.000001 -0.000001 0.896241 17.986063 10.187739 -0.710112 -3.119375 2.012901 10.952940 -1.764819 2.061607 14.446892 -19.246930 -9.551886 21.442997 -23.816347 -7.872884 22.065423 40.283168 58.880909 -15.482996 -10.574211 16.837614 31.450706 3.162111 30.516800 0.077297 -0.008761 0.062842 0.000001 0.000002 0.000001 -9.924992 17.444281 5.029072 -0.883281 -12.566936 5.018455 -9.746301 -2.252012 -5.222094 11.094167 -1.506680 -0.832731 -3.113630 -30.587376 -11.988582 57.625869 -21.723688 -5.519207 0.929776 -5.747795 24.517910 21.140983 6.339078 39.749826 -0.085519 -0.051729 -0.000309 -0.000001 0.000002 0.000002 
192.117340 190.693970 -252.752594 8.135480 51.117819 -12.192630 6.050419 1.960752 8.618661 -1.543814 2.749246 27.281761 -17.874210 -37.818489 11.938375 -10.783782 11.881005 -15.339179 1.810489 -41.264313 -9.454164 11.535469 7.002856 -5.111149 -13.438161 -7.259969 8.123915 0.000002 -0.000013 0.000005 -0.004377 0.099831 0.004062 0.000000 -0.000003 -0.000000 -8.706986 -1.528360 -6.048617 3.139361 18.679123 -5.061980 -5.564726 -41.360619 12.271503 -29.771353 -0.031422 -36.472660 33.602577 -16.282761 -20.028683 -8.077850 -2.058179 -10.336076 2.198997 -16.870352 3.137890 -0.000003 0.000005 0.000009 -0.082390 0.035030 0.044501 -0.000003 0.000003 0.000002 1.346470 6.633414 -2.932727 -2.663275 -3.914352 0.242602 -2.238054 12.386930 0.127333 -4.837315 -8.168858 -0.274136 -2.922316 11.643402 2.871568 -4.294647 -8.419548 -1.198332 -6.582304 22.188135 11.476048 -3.374847 -6.382219 -8.915915 -1.413469 10.363037 5.391024 7.441114 -11.537924 7.117267 -0.036670 -0.007384 0.092699 -0.000000 -0.000001 0.000001 0.896189 17.986094 10.187702 -0.631108 -2.411988 1.752730 10.952940 -1.764808 2.061604 13.384549 -19.596929 -9.964573 21.443020 -23.816406 -7.872881 20.981428 40.035260 59.351639 -15.482960 -10.574148 16.837618 28.948568 2.967558 29.369670 0.077282 -0.008793 0.062835 -0.000001 0.000005 -0.000000 -9.925051 17.444309 5.029039 -0.832002 -12.094240 4.720182 -9.746292 -2.252050 -5.222083 12.196947 -2.086889 1.029522 -3.113605 -30.587374 -11.988557 61.242290 -21.174753 -5.027435 0.929807 -5.747784 24.517864 21.563802 7.950183 45.857600 -0.085488 -0.051743 -0.000333 0.000001 0.000001 0.000002 
192.782013 190.720551 -252.532837 8.147399 49.992385 -11.714346 6.050416 1.960734 8.618629 -0.522385 3.022772 27.595667 -17.874203 -37.818512 11.938428 -11.551595 12.975689 -16.589520 1.810493 -41.264313 -9.454140 11.589035 7.478838 -4.670789 -13.438206 -7.259960 8.123926 0.000002 -0.000013 0.000004 -0.004412 0.099846 0.004071 0.000000 -0.000006 0.000000 -8.706963 -1.528403 -6.048617 2.877252 15.705856 -5.521319 -5.564692 -41.360611 12.271463 -28.654693 -0.697502 -36.415498 33.602577 -16.282707 -20.028702 -8.264210 -2.591728 -11.429912 2.198985 -16.870346 3.137921 -0.000003 0.000002 0.000009 -0.082377 0.035063 0.044527 -0.000000 0.000005 0.000001 1.346494 6.633380 -2.932742 -2.606029 -3.832618 0.013197 -2.238035 12.386933 0.127306 -4.801639 -7.924517 -0.712123 -2.922363 11.643398 2.871579 -4.341051 -8.092549 -1.589893 -6.582315 22.188128 11.476068 -3.106160 -5.700484 -9.970102 -1.413474 10.363011 5.391045 7.813149 -11.867184 7.700985 -0.036693 -0.007337 0.092743 0.000001 -0.000001 -0.000001 0.896198 17.986109 10.187711 -0.607895 -1.913829 1.659717 10.952932 -1.764836 2.061619 11.406604 -19.387033 -10.572047 21.442993 -23.816303 -7.872862 20.290998 39.501194 59.040107 -15.482948 -10.574209 16.837578 26.578320 2.614906 24.473785 0.077292 -0.008742 0.062866 0.000001 0.000002 -0.000002 -9.925028 17.444292 5.029063 -0.829384 -11.598122 4.561707 -9.746358 -2.252009 -5.222066 13.190526 -0.972447 2.579688 -3.113626 -30.587368 -11.988560 65.205139 -20.782160 -4.553440 0.929790 -5.747791 24.517933 22.171783 10.882895 48.567798 -0.085510 -0.051679 -0.000308 0.000001 0.000000 0.000002 
193.316162 190.747131 -252.313110 8.546101 49.791481 -11.781197 6.050411 1.960710 8.618660 -0.280062 5.293756 27.452057 -17.874210 -37.818508 11.938400 -12.311911 12.188010 -17.808496 1.810513 -41.264328 -9.454126 11.401082 6.684695 -4.140688 -13.438129 -7.259947 8.123949 0.000003 -0.000011 0.000004 -0.004392 0.099830 0.004055 -0.000000 -0.000003 -0.000000 -8.706968 -1.528409 -6.048599 2.939138 12.592964 -5.729301 -5.564709 -41.360588 12.271475 -27.668082 -1.779643 -37.086995 33.602543 -16.282732 -20.028698 -7.569619 -2.724004 -12.349799 2.198993 -16.870348 3.137926 -0.000003 0.000001 0.000014 -0.082376 0.035008 0.044497 -0.000003 0.000007 -0.000000 1.346462 6.633387 -2.932750 -2.581210 -3.854148 -0.187300 -2.238035 12.386944 0.127369 -4.812544 -7.897422 -1.121989 -2.922323 11.643364 2.871584 -4.416624 -7.987903 -1.989131 -6.582296 22.188158 11.476038 -2.913062 -5.321061 -10.849505 -1.413484 10.363022 5.391020 8.256192 -12.310462 8.352329 -0.036716 -0.007385 0.092723 -0.000001 -0.000001 0.000001 0.896211 17.986126 10.187707 -0.517947 -2.003733 1.427856 10.952930 -1.764832 2.061588 9.099852 -19.313789 -11.444152 21.443005 -23.816336 -7.872866 20.075958 39.080707 58.523718 -15.482945 -10.574232 16.837599 25.630041 3.474222 16.194420 0.077315 -0.008698 0.062848 0.000001 0.000004 -0.000001 -9.925035 17.444332 5.029026 -0.865044 -11.213969 4.548842 -9.746300 -2.252013 -5.222058 14.195838 0.149183 3.515324 -3.113635 -30.587355 -11.988521 68.461998 -20.274066 -4.088909 0.929806 -5.747719 24.517872 23.053552 13.764112 46.269522 -0.085521 -0.051726 -0.000325 -0.000000 0.000000 -0.000001 
